<?xml version="1.0" encoding="UTF-8"?>
<svg width="2428px" height="2274px" viewBox="0 0 2428 2274" version="1.1" xmlns="http://www.w3.org/2000/svg" xmlns:xlink="http://www.w3.org/1999/xlink">
    <!-- Generator: Sketch 54.1 (76490) - https://sketchapp.com -->
    <title>axa-768</title>
    <desc>Created with Sketch.</desc>
    <g id="Page-1" stroke="none" stroke-width="1" fill="none" fill-rule="evenodd">
        <g id="Artboard" transform="translate(-527.000000, -447.000000)" fill-rule="nonzero">
            <g id="axa-768" transform="translate(527.000000, 447.000000)">
                <polygon id="Path" fill="#F0F0F0" points="1 1 2427 1 2427 2273 1 2273"></polygon>
                <path d="M0.756313682,1.39332628 L0.756313682,2273.37189 L2427.23072,2273.37189 L2427.23072,1.39332628 L0.756313682,1.39332628 Z M1769.8063,2123.48032 C1762.07632,2070.95277 1755.1375,2046.2324 1745.08593,2016.1166 L1668.6162,1771.99969 L1328.71757,1771.99969 L1267.69483,1852.34738 L1322.54396,2017.66001 C1333.36075,2052.41898 1344.94275,2079.46094 1365.01994,2123.48032 L1171.90014,2123.48032 L1140.24095,2017.66001 L1062.98006,2123.48032 L907.693063,2123.48032 L874.464525,2018.42522 L792.586399,2123.48032 L637.312374,2123.48032 C641.177364,2120.40648 644.264168,2117.29374 647.350972,2114.2199 C686.753118,2079.44797 711.47349,2047.78877 733.094088,2019.20341 L831.988545,1889.41497 L793.351616,1771.98672 L454.231173,1771.98672 L189.258877,2123.48032 L24.7114694,2123.48032 C87.290585,2069.40937 103.515761,2052.41898 126.679761,2021.51203 L628.817178,1357.92698 C635.70577,1348.88313 641.901329,1339.33182 647.350972,1329.35458 C656.624354,1313.90759 665.11955,1296.13902 669.762726,1274.50545 L832.753761,1274.50545 C832.753761,1310.82079 838.162153,1330.89799 845.892133,1358.71813 L960.207641,1717.16352 L1018.92177,1639.9156 L925.448671,1354.85314 C918.496877,1333.99776 910.001681,1306.9558 892.998319,1274.50545 L1090.76129,1274.50545 C1096.16969,1306.17761 1101.57808,1331.67617 1110.07327,1359.48335 L1146.37565,1471.50321 L1231.34058,1358.7311 C1250.66553,1332.46733 1276.94227,1303.10378 1288.5113,1274.51842 L1461.5539,1274.51842 C1427.58609,1301.56038 1405.92658,1330.14574 1385.08417,1357.17473 L1193.50777,1611.34321 L1226.71037,1716.41128 L1500.96902,1357.95291 C1507.90784,1347.1491 1515.63782,1337.87572 1523.3678,1327.83712 C1533.39343,1312.39013 1541.91457,1296.17792 1547.33593,1274.53139 L1708.77059,1274.53139 C1711.10515,1303.11675 1714.95717,1327.83712 1722.67418,1354.10089 L1930.48872,2016.92073 C1940.51435,2052.44491 1947.49208,2074.07848 1973.72992,2123.51923 L1769.8063,2123.51923 L1769.8063,2123.48032 L1769.8063,2123.48032 Z" id="Shape" fill="#808080"></path>
                <path d="M531.479093,1666.93162 L763.235821,1666.93162 L692.939696,1452.94347 L531.479093,1666.93162 Z M1002.70956,1847.70421 L1039.79012,1965.13246 L1099.28243,1887.10635 L1058.32391,1771.99969 L1002.70956,1847.70421 Z M1411.37388,1666.93162 L1635.40063,1666.93162 L1565.10451,1452.94347 L1411.37388,1666.93162 Z" id="Shape" fill="#808080"></path>
                <polygon id="Path" fill="#F0F0F0" points="1328.71757 1231.23831 1470.85322 1231.23831 2399.42354 0.62811015 2257.28789 0.62811015"></polygon>
            </g>
        </g>
    </g>
</svg>